<svg width="100mm" height="120mm" version="1.1" viewBox="0 0 100 120" xmlns="http://www.w3.org/2000/svg"
  xmlns:xlink="http://www.w3.org/1999/xlink">
  <defs>
    <circle id="a" cx="50" cy="90" r="8" />
  </defs>
  <path width="100" height="120"
    d="m5 0h89.218a5.7821 6.0001 0 0 1 5.7821 6.0001v108.81a5 5.1885 0 0 1-5 5.1885h-89.218a5.7821 6.0001 0 0 1-5.7821-6.0001v-108.81a5 5.1885 0 0 1 5-5.1885z" />
  <g fill="#ccc">
    <use fill="#fff" xlink:href="#a" />
    <use x="30" y="15" xlink:href="#a" />
    <use x="-30" y="15" xlink:href="#a" />
    <use x="30" y="-15" xlink:href="#a" />
    <use x="-30" y="-15" xlink:href="#a" />
  </g>
  <text x="10" y="15" fill="#ffffff" font-family="sans-serif" font-size="10px" stroke-width=".5"
    style="line-height:1.25" xml:space="preserve">Ticket #1</text>
  <g transform="translate(0,0)">
    <path
      d="m53.887 92.381c-0.61745 9e-3 -1.2074-0.42005-1.3902-1.0096h-4.981c-0.23433 0.79272-1.2065 1.2404-1.96 0.89419-0.78327-0.30496-1.142-1.3383-0.7088-2.0601 0.2954-0.31351-0.28271-0.6522-0.18471-1.0571-0.06532-0.8699 0.77787-1.6517 1.6405-1.5181 0.55269 0.0615 1.0462 0.46857 1.2129 0.99887h4.981c0.23459-0.79239 1.2062-1.2405 1.9597-0.8942 0.73086 0.28829 1.1301 1.2363 0.7415 1.94-0.16903 0.26067-0.33019 0.46362-0.03147 0.6945 0.44658 0.63987 0.01597 1.5659-0.64519 1.8667-0.1969 0.0954-0.41557 0.1451-0.63435 0.1448z" />
  </g>
</svg>
